<?xml version="1.0" standalone="no"?><!DOCTYPE svg PUBLIC "-//W3C//DTD SVG 1.1//EN" "http://www.w3.org/Graphics/SVG/1.1/DTD/svg11.dtd"><svg t="1650374827778" class="icon" viewBox="0 0 1024 1024" version="1.1" xmlns="http://www.w3.org/2000/svg" p-id="2619" xmlns:xlink="http://www.w3.org/1999/xlink" width="200" height="200"><defs><style type="text/css"></style></defs><path d="M511.999762 652.57394c130.500404 0 235.650867-105.138556 235.650867-235.650867V235.639436A235.186495 235.186495 0 0 0 511.999762 0.000476a235.162681 235.162681 0 0 0-235.650867 235.63896v181.27173A235.174588 235.174588 0 0 0 511.999762 652.57394zM348.850442 235.639436c0-90.623958 72.513455-163.137412 163.14932-163.137412s163.149319 72.513455 163.149319 163.137412v181.27173c0 90.635865-72.513455 163.149319-163.149319 163.14932a162.470622 162.470622 0 0 1-163.14932-163.14932V235.639436z" p-id="2620" fill="#ffffff"></path><path d="M887.224145 478.553556c0-1.80986 1.80986-5.441486 1.80986-7.251345a36.36389 36.36389 0 0 0-36.256727-36.256728c-18.12241 0-34.434961 14.502691-36.244821 32.625101C791.146795 614.507353 664.26611 725.087395 511.999762 725.087395S232.852729 614.51926 207.467066 467.670584c-1.80986-18.12241-18.134317-32.625101-36.24482-32.625101a36.36389 36.36389 0 0 0-36.256727 36.256728v5.429578c29.005382 170.388758 168.578898 302.722836 340.777516 319.035387v170.06727H245.902769a29.076824 29.076824 0 1 0 0 58.153647h532.205892a29.076824 29.076824 0 1 0 0-58.153647H548.256489V795.779083c172.210525-16.312551 311.784041-148.646629 338.967656-317.225527z" p-id="2621" fill="#ffffff"></path></svg>